<svg width="120" height="18" viewBox="0 0 120 18" fill="none" xmlns="http://www.w3.org/2000/svg">
<path d="M6.81936 17.5183C10.5213 17.5183 13.1516 15.5932 13.1516 12.3446C13.1516 8.78319 10.2534 7.89284 7.67178 7.12281C5.0171 6.32871 4.60307 5.79931 4.60307 5.02928C4.60307 4.3555 5.21194 3.75391 6.42968 3.75391C7.98839 3.75391 8.7921 4.49988 9.37662 5.70306L12.6645 3.80204C11.4224 1.3235 9.23049 0 6.42968 0C3.48274 0 0.706291 1.87696 0.706291 5.12553C0.706291 8.35005 3.19049 9.55323 5.72339 10.2511C8.28065 10.9489 9.25485 11.358 9.25485 12.3927C9.25485 13.0424 8.7921 13.7643 6.94113 13.7643C5.0171 13.7643 3.96984 12.8259 3.36097 11.4302L0 13.3553C0.94984 15.8338 3.2392 17.5183 6.81936 17.5183Z" fill="#5D5FEF"/>
<path d="M18.8769 13.4756V10.4917H24.9656V6.83405H18.8769V4.04268H25.5745V0.33689H14.9801V17.1814H25.6963V13.4756H18.8769Z" fill="#5D5FEF"/>
<path d="M31.7917 13.4756V0.33689H27.8949V17.1814H37.8804V13.4756H31.7917Z" fill="#5D5FEF"/>
<path d="M70.0592 0.336888H66.1624L61.535 7.82065L56.9076 0.336888H53.0108L51.4886 17.1814H55.3854L56.1465 6.63552L61.3158 14.5344H61.7542L66.9235 6.63552L68.4457 17.1814H72.3425L70.0592 0.336888Z" fill="#5D5FEF"/>
<path fill-rule="evenodd" clip-rule="evenodd" d="M50.0492 4.04268L50.3841 0.336888H39.5966V17.1814H43.4934V10.997H49.4208L49.7557 7.29125H43.4934V4.04268H50.0492Z" fill="#5D5FEF"/>
<path d="M86.2771 17.1814H90.5392L84.7427 0.336888H79.7743L73.9779 17.1814H78.24L79.0924 14.5344H85.4247L86.2771 17.1814ZM80.2614 10.9248L82.2585 4.74052L84.2556 10.9248H80.2614Z" fill="#5D5FEF"/>
<path d="M98.8122 0.336888H91.9929V17.1814H98.8122C103.513 17.1814 107.093 13.5237 107.093 8.75913C107.093 3.99455 103.513 0.336888 98.8122 0.336888ZM98.8122 13.4756H95.8896V4.04268H98.8122C101.491 4.04268 103.342 5.8715 103.342 8.75913C103.342 11.6468 101.491 13.4756 98.8122 13.4756Z" fill="#5D5FEF"/>
<path d="M113.181 13.4756V10.4917H119.269V6.83405H113.181V4.04268H119.878V0.336888H109.284V17.1814H120V13.4756H113.181Z" fill="#5D5FEF"/>
</svg>
